<?xml version="1.0" standalone="no"?>
<!DOCTYPE svg PUBLIC "-//W3C//DTD SVG 20010904//EN"
 "http://www.w3.org/TR/2001/REC-SVG-20010904/DTD/svg10.dtd">
<svg version="1.0" xmlns="http://www.w3.org/2000/svg"
 width="512.000000pt" height="512.000000pt" viewBox="0 0 512.000000 512.000000"
 preserveAspectRatio="xMidYMid meet">

<g transform="translate(0.000000,512.000000) scale(0.100000,-0.100000)"
fill="#000000" stroke="none">
<path d="M2644 4911 c-218 -101 -431 -319 -577 -591 -25 -47 -55 -109 -67
-139 -16 -41 -45 -80 -115 -152 -199 -207 -351 -502 -462 -895 l-37 -131 -91
-1 c-171 -2 -315 -36 -471 -112 -564 -273 -798 -945 -529 -1514 73 -155 239
-348 380 -443 160 -108 352 -177 545 -196 l25 -2 3 -257 2 -257 27 -20 c34
-27 59 -26 88 4 l25 24 0 256 0 255 34 0 c54 0 192 29 269 57 463 165 760 588
758 1078 -2 404 -205 760 -552 970 -87 53 -222 108 -311 127 -32 6 -58 17 -58
23 0 5 18 71 41 145 112 371 250 629 437 816 76 76 91 97 123 175 76 181 201
364 333 486 63 60 162 133 178 133 5 0 8 -101 8 -225 l0 -226 25 -24 c22 -23
32 -25 113 -25 268 0 570 -128 833 -353 93 -80 116 -123 129 -243 6 -49 12
-99 15 -110 3 -12 201 -189 477 -425 260 -222 488 -418 505 -436 38 -39 57
-99 47 -149 -7 -39 -77 -148 -133 -208 -49 -52 -97 -81 -166 -101 -93 -27
-152 -17 -444 74 l-265 83 -153 -32 c-196 -41 -255 -40 -467 5 -260 54 -266
52 -266 -87 0 -208 73 -456 196 -665 77 -131 127 -189 389 -448 128 -126 256
-261 284 -300 105 -142 198 -370 216 -533 10 -89 22 -118 55 -132 29 -12 65
-2 82 24 30 45 -21 303 -93 469 -84 191 -164 294 -469 597 -262 261 -309 318
-384 467 -67 134 -114 290 -131 434 l-7 57 143 -29 c184 -38 274 -38 444 -3
72 14 133 28 137 30 4 3 123 -32 265 -76 282 -89 357 -102 465 -81 145 29 256
110 358 262 59 89 90 165 90 224 0 51 -28 130 -63 179 -18 26 -230 214 -497
442 -256 218 -471 404 -477 412 -7 9 -13 35 -13 58 0 93 -32 189 -88 261 -30
40 -179 162 -282 230 -211 141 -498 243 -681 243 l-49 0 0 250 0 251 -25 24
c-30 31 -46 31 -121 -4z m-1208 -2055 c150 -12 350 -92 486 -195 376 -285 499
-812 287 -1235 -108 -217 -295 -390 -521 -480 -128 -52 -222 -69 -378 -69
-112 1 -152 5 -231 26 -364 96 -630 362 -726 726 -22 82 -26 118 -26 241 0
123 4 159 25 240 110 414 461 714 877 749 47 4 97 6 111 5 14 -2 57 -5 96 -8z"/>
<path d="M1436 2668 c-46 -41 -666 -911 -666 -934 0 -12 9 -32 19 -45 19 -24
23 -24 215 -27 108 -2 196 -7 196 -10 0 -4 -26 -128 -57 -275 -61 -286 -61
-288 -10 -317 20 -11 31 -12 50 -3 24 11 651 868 678 926 11 24 10 31 -8 55
l-20 27 -197 3 c-186 2 -196 3 -196 22 0 10 25 135 56 276 60 278 60 294 8
314 -35 14 -40 13 -68 -12z m-127 -503 c-36 -165 -36 -188 -3 -214 25 -19 40
-21 186 -21 88 0 158 -4 156 -9 -5 -13 -343 -480 -345 -477 -1 1 12 69 29 150
30 135 31 150 17 174 l-15 27 -178 5 -178 5 178 247 c98 136 179 246 180 245
1 -1 -11 -60 -27 -132z"/>
<path d="M3129 3482 c-29 -24 -31 -78 -3 -101 11 -9 73 -45 137 -80 l117 -63
81 4 c70 3 83 6 100 27 25 30 24 66 -1 91 -16 16 -33 20 -85 20 -60 0 -72 4
-173 60 -60 33 -118 60 -130 60 -11 0 -30 -8 -43 -18z"/>
</g>
</svg>
